<svg id="visual" viewBox="0 0 1920 961" width="1920" height="961" xmlns="http://www.w3.org/2000/svg" xmlns:xlink="http://www.w3.org/1999/xlink" version="1.1"><path d="M0 576L45.7 578.8C91.3 581.7 182.7 587.3 274.2 609C365.7 630.7 457.3 668.3 548.8 684.5C640.3 700.7 731.7 695.3 823 688.2C914.3 681 1005.7 672 1097 671.5C1188.3 671 1279.7 679 1371.2 688.3C1462.7 697.7 1554.3 708.3 1645.8 687.8C1737.3 667.3 1828.7 615.7 1874.3 589.8L1920 564L1920 962L1874.3 962C1828.7 962 1737.3 962 1645.8 962C1554.3 962 1462.7 962 1371.2 962C1279.7 962 1188.3 962 1097 962C1005.7 962 914.3 962 823 962C731.7 962 640.3 962 548.8 962C457.3 962 365.7 962 274.2 962C182.7 962 91.3 962 45.7 962L0 962Z" fill="#72efb5"></path><path d="M0 765L45.7 751.8C91.3 738.7 182.7 712.3 274.2 696.8C365.7 681.3 457.3 676.7 548.8 675.3C640.3 674 731.7 676 823 675.2C914.3 674.3 1005.7 670.7 1097 678C1188.3 685.3 1279.7 703.7 1371.2 713.7C1462.7 723.7 1554.3 725.3 1645.8 717C1737.3 708.7 1828.7 690.3 1874.3 681.2L1920 672L1920 962L1874.3 962C1828.7 962 1737.3 962 1645.8 962C1554.3 962 1462.7 962 1371.2 962C1279.7 962 1188.3 962 1097 962C1005.7 962 914.3 962 823 962C731.7 962 640.3 962 548.8 962C457.3 962 365.7 962 274.2 962C182.7 962 91.3 962 45.7 962L0 962Z" fill="#95e489"></path><path d="M0 728L45.7 725.8C91.3 723.7 182.7 719.3 274.2 731.7C365.7 744 457.3 773 548.8 780.7C640.3 788.3 731.7 774.7 823 765.7C914.3 756.7 1005.7 752.3 1097 755.8C1188.3 759.3 1279.7 770.7 1371.2 773.2C1462.7 775.7 1554.3 769.3 1645.8 771.2C1737.3 773 1828.7 783 1874.3 788L1920 793L1920 962L1874.3 962C1828.7 962 1737.3 962 1645.8 962C1554.3 962 1462.7 962 1371.2 962C1279.7 962 1188.3 962 1097 962C1005.7 962 914.3 962 823 962C731.7 962 640.3 962 548.8 962C457.3 962 365.7 962 274.2 962C182.7 962 91.3 962 45.7 962L0 962Z" fill="#b8d662"></path><path d="M0 867L45.7 861.7C91.3 856.3 182.7 845.7 274.2 837C365.7 828.3 457.3 821.7 548.8 825.8C640.3 830 731.7 845 823 852.2C914.3 859.3 1005.7 858.7 1097 843.7C1188.3 828.7 1279.7 799.3 1371.2 793.5C1462.7 787.7 1554.3 805.3 1645.8 805.5C1737.3 805.7 1828.7 788.3 1874.3 779.7L1920 771L1920 962L1874.3 962C1828.7 962 1737.3 962 1645.8 962C1554.3 962 1462.7 962 1371.2 962C1279.7 962 1188.3 962 1097 962C1005.7 962 914.3 962 823 962C731.7 962 640.3 962 548.8 962C457.3 962 365.7 962 274.2 962C182.7 962 91.3 962 45.7 962L0 962Z" fill="#dac445"></path><path d="M0 861L45.7 863.3C91.3 865.7 182.7 870.3 274.2 868.3C365.7 866.3 457.3 857.7 548.8 852.8C640.3 848 731.7 847 823 846.3C914.3 845.7 1005.7 845.3 1097 852.5C1188.3 859.7 1279.7 874.3 1371.2 885.2C1462.7 896 1554.3 903 1645.8 899.2C1737.3 895.3 1828.7 880.7 1874.3 873.3L1920 866L1920 962L1874.3 962C1828.7 962 1737.3 962 1645.8 962C1554.3 962 1462.7 962 1371.2 962C1279.7 962 1188.3 962 1097 962C1005.7 962 914.3 962 823 962C731.7 962 640.3 962 548.8 962C457.3 962 365.7 962 274.2 962C182.7 962 91.3 962 45.7 962L0 962Z" fill="#fbae3c"></path></svg>