<svg id="visual" viewBox="0 0 1920 961" width="1920" height="961" xmlns="http://www.w3.org/2000/svg" xmlns:xlink="http://www.w3.org/1999/xlink" version="1.1"><path d="M0 773L17.8 768.7C35.7 764.3 71.3 755.7 106.8 772.5C142.3 789.3 177.7 831.7 213.2 848.8C248.7 866 284.3 858 320 843.2C355.7 828.3 391.3 806.7 426.8 796.8C462.3 787 497.7 789 533.2 785.2C568.7 781.3 604.3 771.7 640 767.3C675.7 763 711.3 764 746.8 784.2C782.3 804.3 817.7 843.7 853.2 861.8C888.7 880 924.3 877 960 871C995.7 865 1031.3 856 1066.8 840.7C1102.3 825.3 1137.7 803.7 1173.2 793.3C1208.7 783 1244.3 784 1280 783.3C1315.7 782.7 1351.3 780.3 1386.8 775.8C1422.3 771.3 1457.7 764.7 1493.2 776.7C1528.7 788.7 1564.3 819.3 1600 821C1635.7 822.7 1671.3 795.3 1706.8 781.7C1742.3 768 1777.7 768 1813.2 766.8C1848.7 765.7 1884.3 763.3 1902.2 762.2L1920 761L1920 962L1902.2 962C1884.3 962 1848.7 962 1813.2 962C1777.7 962 1742.3 962 1706.8 962C1671.3 962 1635.7 962 1600 962C1564.3 962 1528.7 962 1493.2 962C1457.7 962 1422.3 962 1386.8 962C1351.3 962 1315.7 962 1280 962C1244.3 962 1208.7 962 1173.2 962C1137.7 962 1102.3 962 1066.8 962C1031.3 962 995.7 962 960 962C924.3 962 888.7 962 853.2 962C817.7 962 782.3 962 746.8 962C711.3 962 675.7 962 640 962C604.3 962 568.7 962 533.2 962C497.7 962 462.3 962 426.8 962C391.3 962 355.7 962 320 962C284.3 962 248.7 962 213.2 962C177.7 962 142.3 962 106.8 962C71.3 962 35.7 962 17.8 962L0 962Z" fill="#fff" stroke-linecap="round" stroke-linejoin="miter"></path></svg>