<svg id="visual" viewBox="0 0 1920 961" width="1920" height="961" xmlns="http://www.w3.org/2000/svg" xmlns:xlink="http://www.w3.org/1999/xlink" version="1.1"><path d="M0 78L29.2 81.2C58.3 84.3 116.7 90.7 174.8 97C233 103.3 291 109.7 349.2 106.5C407.3 103.3 465.7 90.7 523.8 82.7C582 74.7 640 71.3 698.2 71.3C756.3 71.3 814.7 74.7 872.8 79.5C931 84.3 989 90.7 1047.2 92.2C1105.3 93.7 1163.7 90.3 1221.8 90.3C1280 90.3 1338 93.7 1396.2 90.5C1454.3 87.3 1512.7 77.7 1570.8 74.5C1629 71.3 1687 74.7 1745.2 81.2C1803.3 87.7 1861.7 97.3 1890.8 102.2L1920 107L1920 0L1890.8 0C1861.7 0 1803.3 0 1745.2 0C1687 0 1629 0 1570.8 0C1512.7 0 1454.3 0 1396.2 0C1338 0 1280 0 1221.8 0C1163.7 0 1105.3 0 1047.2 0C989 0 931 0 872.8 0C814.7 0 756.3 0 698.2 0C640 0 582 0 523.8 0C465.7 0 407.3 0 349.2 0C291 0 233 0 174.8 0C116.7 0 58.3 0 29.2 0L0 0Z" fill="#ffffff"></path><path d="M0 107L29.2 111.8C58.3 116.7 116.7 126.3 174.8 134.3C233 142.3 291 148.7 349.2 143.8C407.3 139 465.7 123 523.8 113.3C582 103.7 640 100.3 698.2 100.3C756.3 100.3 814.7 103.7 872.8 110.2C931 116.7 989 126.3 1047.2 129.5C1105.3 132.7 1163.7 129.3 1221.8 129.3C1280 129.3 1338 132.7 1396.2 129.5C1454.3 126.3 1512.7 116.7 1570.8 111.8C1629 107 1687 107 1745.2 113.3C1803.3 119.7 1861.7 132.3 1890.8 138.7L1920 145L1920 105L1890.8 100.2C1861.7 95.3 1803.3 85.7 1745.2 79.2C1687 72.7 1629 69.3 1570.8 72.5C1512.7 75.7 1454.3 85.3 1396.2 88.5C1338 91.7 1280 88.3 1221.8 88.3C1163.7 88.3 1105.3 91.7 1047.2 90.2C989 88.7 931 82.3 872.8 77.5C814.7 72.7 756.3 69.3 698.2 69.3C640 69.3 582 72.7 523.8 80.7C465.7 88.7 407.3 101.3 349.2 104.5C291 107.7 233 101.3 174.8 95C116.7 88.7 58.3 82.3 29.2 79.2L0 76Z" fill="#f4fef8"></path><path d="M0 155L29.2 159.8C58.3 164.7 116.7 174.3 174.8 180.7C233 187 291 190 349.2 185.2C407.3 180.3 465.7 167.7 523.8 159.7C582 151.7 640 148.3 698.2 148.3C756.3 148.3 814.7 151.7 872.8 158.2C931 164.7 989 174.3 1047.2 175.8C1105.3 177.3 1163.7 170.7 1221.8 169C1280 167.3 1338 170.7 1396.2 166C1454.3 161.3 1512.7 148.7 1570.8 145.5C1629 142.3 1687 148.7 1745.2 158.2C1803.3 167.7 1861.7 180.3 1890.8 186.7L1920 193L1920 143L1890.8 136.7C1861.7 130.3 1803.3 117.7 1745.2 111.3C1687 105 1629 105 1570.8 109.8C1512.7 114.7 1454.3 124.3 1396.2 127.5C1338 130.7 1280 127.3 1221.8 127.3C1163.7 127.3 1105.3 130.7 1047.2 127.5C989 124.3 931 114.7 872.8 108.2C814.7 101.7 756.3 98.3 698.2 98.3C640 98.3 582 101.7 523.8 111.3C465.7 121 407.3 137 349.2 141.8C291 146.7 233 140.3 174.8 132.3C116.7 124.3 58.3 114.7 29.2 109.8L0 105Z" fill="#e8fdf1"></path><path d="M0 203L29.2 204.5C58.3 206 116.7 209 174.8 217C233 225 291 238 349.2 234.8C407.3 231.7 465.7 212.3 523.8 201.2C582 190 640 187 698.2 185.5C756.3 184 814.7 184 872.8 190.3C931 196.7 989 209.3 1047.2 212.5C1105.3 215.7 1163.7 209.3 1221.8 207.7C1280 206 1338 209 1396.2 207.3C1454.3 205.7 1512.7 199.3 1570.8 196.2C1629 193 1687 193 1745.2 201C1803.3 209 1861.7 225 1890.8 233L1920 241L1920 191L1890.8 184.7C1861.7 178.3 1803.3 165.7 1745.2 156.2C1687 146.7 1629 140.3 1570.8 143.5C1512.7 146.7 1454.3 159.3 1396.2 164C1338 168.7 1280 165.3 1221.8 167C1163.7 168.7 1105.3 175.3 1047.2 173.8C989 172.3 931 162.7 872.8 156.2C814.7 149.7 756.3 146.3 698.2 146.3C640 146.3 582 149.7 523.8 157.7C465.7 165.7 407.3 178.3 349.2 183.2C291 188 233 185 174.8 178.7C116.7 172.3 58.3 162.7 29.2 157.8L0 153Z" fill="#ddfbeb"></path><path d="M0 337L29.2 329C58.3 321 116.7 305 174.8 309.8C233 314.7 291 340.3 349.2 340.3C407.3 340.3 465.7 314.7 523.8 305.2C582 295.7 640 302.3 698.2 307.2C756.3 312 814.7 315 872.8 311.7C931 308.3 989 298.7 1047.2 297.2C1105.3 295.7 1163.7 302.3 1221.8 312C1280 321.7 1338 334.3 1396.2 332.7C1454.3 331 1512.7 315 1570.8 308.7C1629 302.3 1687 305.7 1745.2 312C1803.3 318.3 1861.7 327.7 1890.8 332.3L1920 337L1920 239L1890.8 231C1861.7 223 1803.3 207 1745.2 199C1687 191 1629 191 1570.8 194.2C1512.7 197.3 1454.3 203.7 1396.2 205.3C1338 207 1280 204 1221.8 205.7C1163.7 207.3 1105.3 213.7 1047.2 210.5C989 207.3 931 194.7 872.8 188.3C814.7 182 756.3 182 698.2 183.5C640 185 582 188 523.8 199.2C465.7 210.3 407.3 229.7 349.2 232.8C291 236 233 223 174.8 215C116.7 207 58.3 204 29.2 202.5L0 201Z" fill="#d1fae4"></path><path d="M0 405L29.2 392.2C58.3 379.3 116.7 353.7 174.8 353.7C233 353.7 291 379.3 349.2 380.8C407.3 382.3 465.7 359.7 523.8 354.8C582 350 640 363 698.2 369.5C756.3 376 814.7 376 872.8 372.8C931 369.7 989 363.3 1047.2 358.5C1105.3 353.7 1163.7 350.3 1221.8 358.3C1280 366.3 1338 385.7 1396.2 385.7C1454.3 385.7 1512.7 366.3 1570.8 359.8C1629 353.3 1687 359.7 1745.2 369.3C1803.3 379 1861.7 392 1890.8 398.5L1920 405L1920 335L1890.8 330.3C1861.7 325.7 1803.3 316.3 1745.2 310C1687 303.7 1629 300.3 1570.8 306.7C1512.7 313 1454.3 329 1396.2 330.7C1338 332.3 1280 319.7 1221.8 310C1163.7 300.3 1105.3 293.7 1047.2 295.2C989 296.7 931 306.3 872.8 309.7C814.7 313 756.3 310 698.2 305.2C640 300.3 582 293.7 523.8 303.2C465.7 312.7 407.3 338.3 349.2 338.3C291 338.3 233 312.7 174.8 307.8C116.7 303 58.3 319 29.2 327L0 335Z" fill="#c5f9dd"></path><path d="M0 462L29.2 449.2C58.3 436.3 116.7 410.7 174.8 407.5C233 404.3 291 423.7 349.2 422.2C407.3 420.7 465.7 398.3 523.8 396.7C582 395 640 414 698.2 422C756.3 430 814.7 427 872.8 420.7C931 414.3 989 404.7 1047.2 399.8C1105.3 395 1163.7 395 1221.8 404.7C1280 414.3 1338 433.7 1396.2 435.3C1454.3 437 1512.7 421 1570.8 414.5C1629 408 1687 411 1745.2 417.3C1803.3 423.7 1861.7 433.3 1890.8 438.2L1920 443L1920 403L1890.8 396.5C1861.7 390 1803.3 377 1745.2 367.3C1687 357.7 1629 351.3 1570.8 357.8C1512.7 364.3 1454.3 383.7 1396.2 383.7C1338 383.7 1280 364.3 1221.8 356.3C1163.7 348.3 1105.3 351.7 1047.2 356.5C989 361.3 931 367.7 872.8 370.8C814.7 374 756.3 374 698.2 367.5C640 361 582 348 523.8 352.8C465.7 357.7 407.3 380.3 349.2 378.8C291 377.3 233 351.7 174.8 351.7C116.7 351.7 58.3 377.3 29.2 390.2L0 403Z" fill="#b9f7d7"></path><path d="M0 645L29.2 633.8C58.3 622.7 116.7 600.3 174.8 593.8C233 587.3 291 596.7 349.2 591.8C407.3 587 465.7 568 523.8 564.8C582 561.7 640 574.3 698.2 587.2C756.3 600 814.7 613 872.8 605C931 597 989 568 1047.2 568C1105.3 568 1163.7 597 1221.8 613C1280 629 1338 632 1396.2 622.3C1454.3 612.7 1512.7 590.3 1570.8 593.5C1629 596.7 1687 625.3 1745.2 631.7C1803.3 638 1861.7 622 1890.8 614L1920 606L1920 441L1890.8 436.2C1861.7 431.3 1803.3 421.7 1745.2 415.3C1687 409 1629 406 1570.8 412.5C1512.7 419 1454.3 435 1396.2 433.3C1338 431.7 1280 412.3 1221.8 402.7C1163.7 393 1105.3 393 1047.2 397.8C989 402.7 931 412.3 872.8 418.7C814.7 425 756.3 428 698.2 420C640 412 582 393 523.8 394.7C465.7 396.3 407.3 418.7 349.2 420.2C291 421.7 233 402.3 174.8 405.5C116.7 408.7 58.3 434.3 29.2 447.2L0 460Z" fill="#acf6d0"></path><path d="M0 808L29.2 801.7C58.3 795.3 116.7 782.7 174.8 781.2C233 779.7 291 789.3 349.2 795.7C407.3 802 465.7 805 523.8 809.7C582 814.3 640 820.7 698.2 814.3C756.3 808 814.7 789 872.8 776.3C931 763.7 989 757.3 1047.2 760.5C1105.3 763.7 1163.7 776.3 1221.8 781C1280 785.7 1338 782.3 1396.2 777.5C1454.3 772.7 1512.7 766.3 1570.8 768C1629 769.7 1687 779.3 1745.2 792.2C1803.3 805 1861.7 821 1890.8 829L1920 837L1920 604L1890.8 612C1861.7 620 1803.3 636 1745.2 629.7C1687 623.3 1629 594.7 1570.8 591.5C1512.7 588.3 1454.3 610.7 1396.2 620.3C1338 630 1280 627 1221.8 611C1163.7 595 1105.3 566 1047.2 566C989 566 931 595 872.8 603C814.7 611 756.3 598 698.2 585.2C640 572.3 582 559.7 523.8 562.8C465.7 566 407.3 585 349.2 589.8C291 594.7 233 585.3 174.8 591.8C116.7 598.3 58.3 620.7 29.2 631.8L0 643Z" fill="#9ff4c9"></path><path d="M0 866L29.2 862.8C58.3 859.7 116.7 853.3 174.8 850.2C233 847 291 847 349.2 848.5C407.3 850 465.7 853 523.8 856.2C582 859.3 640 862.7 698.2 857.8C756.3 853 814.7 840 872.8 833.5C931 827 989 827 1047.2 833.5C1105.3 840 1163.7 853 1221.8 856.3C1280 859.7 1338 853.3 1396.2 848.5C1454.3 843.7 1512.7 840.3 1570.8 838.7C1629 837 1687 837 1745.2 845C1803.3 853 1861.7 869 1890.8 877L1920 885L1920 835L1890.8 827C1861.7 819 1803.3 803 1745.2 790.2C1687 777.3 1629 767.7 1570.8 766C1512.7 764.3 1454.3 770.7 1396.2 775.5C1338 780.3 1280 783.7 1221.8 779C1163.7 774.3 1105.3 761.7 1047.2 758.5C989 755.3 931 761.7 872.8 774.3C814.7 787 756.3 806 698.2 812.3C640 818.7 582 812.3 523.8 807.7C465.7 803 407.3 800 349.2 793.7C291 787.3 233 777.7 174.8 779.2C116.7 780.7 58.3 793.3 29.2 799.7L0 806Z" fill="#91f3c2"></path><path d="M0 914L29.2 914C58.3 914 116.7 914 174.8 917.2C233 920.3 291 926.7 349.2 928.3C407.3 930 465.7 927 523.8 925.5C582 924 640 924 698.2 924C756.3 924 814.7 924 872.8 922.3C931 920.7 989 917.3 1047.2 917.3C1105.3 917.3 1163.7 920.7 1221.8 923.8C1280 927 1338 930 1396.2 930C1454.3 930 1512.7 927 1570.8 927C1629 927 1687 930 1745.2 931.5C1803.3 933 1861.7 933 1890.8 933L1920 933L1920 883L1890.8 875C1861.7 867 1803.3 851 1745.2 843C1687 835 1629 835 1570.8 836.7C1512.7 838.3 1454.3 841.7 1396.2 846.5C1338 851.3 1280 857.7 1221.8 854.3C1163.7 851 1105.3 838 1047.2 831.5C989 825 931 825 872.8 831.5C814.7 838 756.3 851 698.2 855.8C640 860.7 582 857.3 523.8 854.2C465.7 851 407.3 848 349.2 846.5C291 845 233 845 174.8 848.2C116.7 851.3 58.3 857.7 29.2 860.8L0 864Z" fill="#82f1bc"></path><path d="M0 962L29.2 962C58.3 962 116.7 962 174.8 962C233 962 291 962 349.2 962C407.3 962 465.7 962 523.8 962C582 962 640 962 698.2 962C756.3 962 814.7 962 872.8 962C931 962 989 962 1047.2 962C1105.3 962 1163.7 962 1221.8 962C1280 962 1338 962 1396.2 962C1454.3 962 1512.7 962 1570.8 962C1629 962 1687 962 1745.2 962C1803.3 962 1861.7 962 1890.8 962L1920 962L1920 931L1890.8 931C1861.7 931 1803.3 931 1745.2 929.5C1687 928 1629 925 1570.8 925C1512.7 925 1454.3 928 1396.2 928C1338 928 1280 925 1221.8 921.8C1163.7 918.7 1105.3 915.3 1047.2 915.3C989 915.3 931 918.7 872.8 920.3C814.7 922 756.3 922 698.2 922C640 922 582 922 523.8 923.5C465.7 925 407.3 928 349.2 926.3C291 924.7 233 918.3 174.8 915.2C116.7 912 58.3 912 29.2 912L0 912Z" fill="#72efb5"></path></svg>