<svg id="visual" viewBox="0 0 1920 961" width="1920" height="961" xmlns="http://www.w3.org/2000/svg" xmlns:xlink="http://www.w3.org/1999/xlink" version="1.1"><path d="M0 872L17.8 852.8C35.7 833.7 71.3 795.3 106.8 795.2C142.3 795 177.7 833 213.2 835.7C248.7 838.3 284.3 805.7 320 802.3C355.7 799 391.3 825 426.8 841.5C462.3 858 497.7 865 533.2 848.5C568.7 832 604.3 792 640 774.8C675.7 757.7 711.3 763.3 746.8 777C782.3 790.7 817.7 812.3 853.2 826.8C888.7 841.3 924.3 848.7 960 834.5C995.7 820.3 1031.3 784.7 1066.8 776.8C1102.3 769 1137.7 789 1173.2 804.8C1208.7 820.7 1244.3 832.3 1280 838.8C1315.7 845.3 1351.3 846.7 1386.8 837.3C1422.3 828 1457.7 808 1493.2 813.3C1528.7 818.7 1564.3 849.3 1600 856C1635.7 862.7 1671.3 845.3 1706.8 826.2C1742.3 807 1777.7 786 1813.2 786.3C1848.7 786.7 1884.3 808.3 1902.2 819.2L1920 830L1920 962L1902.2 962C1884.3 962 1848.7 962 1813.2 962C1777.7 962 1742.3 962 1706.8 962C1671.3 962 1635.7 962 1600 962C1564.3 962 1528.7 962 1493.2 962C1457.7 962 1422.3 962 1386.8 962C1351.3 962 1315.7 962 1280 962C1244.3 962 1208.7 962 1173.2 962C1137.7 962 1102.3 962 1066.8 962C1031.3 962 995.7 962 960 962C924.3 962 888.7 962 853.2 962C817.7 962 782.3 962 746.8 962C711.3 962 675.7 962 640 962C604.3 962 568.7 962 533.2 962C497.7 962 462.3 962 426.8 962C391.3 962 355.7 962 320 962C284.3 962 248.7 962 213.2 962C177.7 962 142.3 962 106.8 962C71.3 962 35.7 962 17.8 962L0 962Z" fill="#001220" stroke-linecap="round" stroke-linejoin="miter"></path></svg>