<svg width="150" height="150" viewBox="0 0 150 150" fill="none" xmlns="http://www.w3.org/2000/svg">
	<g clip-path="url(#clip0_346_13)">
		<circle cx="75.5" cy="76.5" r="74.5" fill="none" />
		<path d="M50.1714 120.78C50.1714 121.4 49.4758 121.896 48.5988 121.896C47.6008 121.989 46.9052 121.493 46.9052 120.78C46.9052 120.159 47.6008 119.663 48.4778 119.663C49.3851 119.57 50.1714 120.066 50.1714 120.78ZM40.7661 119.384C40.5544 120.004 41.1593 120.718 42.0665 120.904C42.8528 121.214 43.7601 120.904 43.9415 120.284C44.123 119.663 43.5484 118.95 42.6411 118.671C41.8548 118.454 40.9778 118.764 40.7661 119.384ZM54.1331 118.857C53.2561 119.074 52.6512 119.663 52.7419 120.377C52.8327 120.997 53.619 121.4 54.5262 121.183C55.4032 120.966 56.0081 120.377 55.9173 119.756C55.8266 119.167 55.0101 118.764 54.1331 118.857ZM74.0323 0C32.0867 0 0 32.6608 0 75.6812C0 110.079 21.1089 139.514 51.2601 149.874C55.1311 150.587 56.4919 148.137 56.4919 146.121C56.4919 144.198 56.4012 133.59 56.4012 127.076C56.4012 127.076 35.2319 131.729 30.7863 117.833C30.7863 117.833 27.3387 108.807 22.379 106.481C22.379 106.481 15.4536 101.611 22.8629 101.704C22.8629 101.704 30.3931 102.325 34.5363 109.707C41.1593 121.679 52.2581 118.236 56.5827 116.189C57.2782 111.227 59.244 107.784 61.4214 105.737C44.5161 103.814 27.4597 101.301 27.4597 71.4629C27.4597 62.9333 29.7581 58.6529 34.5968 53.194C33.8105 51.1779 31.2399 42.8653 35.3831 32.1335C41.7036 30.1174 56.25 40.5081 56.25 40.5081C62.2984 38.7711 68.8004 37.8716 75.2419 37.8716C81.6835 37.8716 88.1855 38.7711 94.2339 40.5081C94.2339 40.5081 108.78 30.0864 115.101 32.1335C119.244 42.8964 116.673 51.1779 115.887 53.194C120.726 58.684 123.69 62.9643 123.69 71.4629C123.69 101.394 105.877 103.783 88.9718 105.737C91.754 108.187 94.1129 112.839 94.1129 120.128C94.1129 130.581 94.0222 143.515 94.0222 146.059C94.0222 148.075 95.4133 150.525 99.254 149.812C129.496 139.514 150 110.079 150 75.6812C150 32.6608 115.978 0 74.0323 0ZM29.3952 106.977C29.002 107.287 29.0927 108.001 29.6069 108.59C30.0907 109.086 30.7863 109.304 31.1794 108.9C31.5726 108.59 31.4819 107.877 30.9677 107.287C30.4839 106.791 29.7883 106.574 29.3952 106.977ZM26.129 104.465C25.9173 104.868 26.2198 105.364 26.8246 105.675C27.3085 105.985 27.9133 105.892 28.125 105.457C28.3367 105.054 28.0343 104.558 27.4294 104.248C26.8246 104.062 26.3407 104.155 26.129 104.465ZM35.9274 115.507C35.4436 115.91 35.625 116.841 36.3206 117.43C37.0161 118.143 37.8931 118.236 38.2863 117.74C38.6794 117.337 38.498 116.406 37.8931 115.817C37.2278 115.104 36.3206 115.011 35.9274 115.507ZM32.4798 110.947C31.996 111.258 31.996 112.064 32.4798 112.777C32.9637 113.491 33.7802 113.801 34.1734 113.491C34.6573 113.088 34.6573 112.281 34.1734 111.568C33.75 110.854 32.9637 110.544 32.4798 110.947Z" fill="black" />
	</g>
	<defs>
		<clipPath id="clip0_346_13">
			<rect width="150" height="150" fill="white" />
		</clipPath>
	</defs>
</svg>
