<svg xmlns="http://www.w3.org/2000/svg" xmlns:xlink="http://www.w3.org/1999/xlink" width="150px" height="150px" viewBox="0 0 150 150" version="1.1" >
	<g id="surface1">
		<path  d="M 126.890625 18.652344 C 125.085938 18.730469 123.429688 19.25 121.972656 19.824219 C 120.628906 20.355469 115.796875 22.382812 108.105469 25.609375 C 100.414062 28.835938 90.222656 33.113281 79.359375 37.683594 C 57.628906 46.820312 33.214844 57.101562 20.703125 62.367188 C 20.273438 62.542969 18.527344 63.078125 16.601562 64.550781 C 14.671875 66.027344 12.523438 69.226562 12.523438 72.730469 C 12.523438 75.554688 13.933594 78.429688 15.636719 80.078125 C 17.339844 81.726562 19.066406 82.496094 20.507812 83.070312 L 20.507812 83.054688 C 25.382812 85 39.941406 90.824219 43.40625 92.210938 C 44.636719 95.894531 49.917969 111.671875 51.171875 115.636719 L 51.160156 115.636719 C 52.046875 118.445312 52.914062 120.273438 54.113281 121.800781 C 54.714844 122.566406 55.429688 123.257812 56.3125 123.804688 C 56.648438 124.011719 57.023438 124.175781 57.398438 124.328125 C 57.449219 124.351562 57.503906 124.355469 57.554688 124.378906 L 57.410156 124.339844 C 57.519531 124.382812 57.617188 124.449219 57.726562 124.488281 C 57.90625 124.550781 58.03125 124.546875 58.277344 124.597656 C 59.132812 124.859375 59.988281 125.035156 60.777344 125.035156 C 64.175781 125.035156 66.257812 123.191406 66.257812 123.195312 L 66.394531 123.09375 L 81.066406 110.679688 L 99.035156 127.308594 C 99.363281 127.769531 101.933594 131.25 107.886719 131.25 C 111.4375 131.25 114.242188 129.492188 116.039062 127.648438 C 117.835938 125.804688 118.953125 123.917969 119.457031 121.363281 L 119.46875 121.351562 C 119.871094 119.285156 137.074219 32.910156 137.074219 32.910156 L 137.035156 33.058594 C 137.570312 30.667969 137.730469 28.355469 137.097656 26 C 136.464844 23.644531 134.757812 21.347656 132.703125 20.140625 C 130.648438 18.933594 128.699219 18.574219 126.890625 18.652344 Z M 124.425781 32.335938 C 123.746094 35.75 108.335938 113.160156 107.386719 118.015625 L 81.433594 94.007812 L 63.890625 108.835938 L 68.75 89.84375 C 68.75 89.84375 102.265625 55.917969 104.285156 53.941406 C 105.910156 52.363281 106.25 51.808594 106.25 51.257812 C 106.25 50.527344 105.875 50 105.003906 50 C 104.222656 50 103.164062 50.75 102.601562 51.097656 C 95.453125 55.554688 65.007812 72.902344 50.035156 81.421875 C 49.136719 81.058594 35.609375 75.628906 28.320312 72.71875 C 41.285156 67.261719 63.507812 57.910156 84.203125 49.207031 C 95.066406 44.636719 105.253906 40.355469 112.9375 37.132812 C 119.425781 34.414062 122.808594 33.003906 124.425781 32.335938 Z M 107.203125 118.910156 C 107.203125 118.910156 107.214844 118.910156 107.214844 118.910156 C 107.214844 118.910156 107.203125 118.945312 107.203125 118.945312 C 107.210938 118.90625 107.195312 118.941406 107.203125 118.910156 Z M 107.203125 118.910156 " />
	</g>
</svg>
