<svg id="visual" viewBox="0 0 1920 961" width="1920" height="961" xmlns="http://www.w3.org/2000/svg" xmlns:xlink="http://www.w3.org/1999/xlink" version="1.1"><path d="M0 851L45.7 856.3C91.3 861.7 182.7 872.3 274.2 867.3C365.7 862.3 457.3 841.7 548.8 824.3C640.3 807 731.7 793 823 794.2C914.3 795.3 1005.7 811.7 1097 806.2C1188.3 800.7 1279.7 773.3 1371.2 766.7C1462.7 760 1554.3 774 1645.8 784.2C1737.3 794.3 1828.7 800.7 1874.3 803.8L1920 807L1920 962L1874.3 962C1828.7 962 1737.3 962 1645.8 962C1554.3 962 1462.7 962 1371.2 962C1279.7 962 1188.3 962 1097 962C1005.7 962 914.3 962 823 962C731.7 962 640.3 962 548.8 962C457.3 962 365.7 962 274.2 962C182.7 962 91.3 962 45.7 962L0 962Z" fill="#C62368" stroke-linecap="round" stroke-linejoin="miter"></path></svg>